<svg id="dashboard" xmlns="http://www.w3.org/2000/svg" width="24" height="24" viewBox="0 0 24 24">
  <path id="Path_129693" data-name="Path 129693" d="M0,0H24V24H0Z" fill="none"/>
  <g id="Group_172707" data-name="Group 172707" transform="translate(1.24 1.203)">
    <g id="Group_172706" data-name="Group 172706" transform="translate(0.76 0.797)">
      <path id="Path_129745" data-name="Path 129745" d="M7.361,16.317a18.706,18.706,0,0,0-5.345-.944A1.327,1.327,0,0,1,.76,14.036V2.136A1.336,1.336,0,0,1,2.176.8c5.639.294,8.6,2.307,8.6,3.839,0-1.523,3.314-3.519,8.587-3.83a1.327,1.327,0,0,1,1.434,1.336V13.368" transform="translate(-0.76 -0.797)" fill="none" stroke="#797a7a" stroke-linecap="round" stroke-linejoin="round" stroke-width="1.5"/>
      <line id="Line_88763" data-name="Line 88763" y2="3.465" transform="translate(10.012 3.842)" fill="none" stroke="#797a7a" stroke-linecap="round" stroke-linejoin="round" stroke-width="1.5"/>
    </g>
    <path id="Path_129746" data-name="Path 129746" d="M8.732,6.408A21.521,21.521,0,0,0,3.77,5.25" transform="translate(-0.329 -0.486)" fill="none" stroke="#797a7a" stroke-linecap="round" stroke-linejoin="round" stroke-width="1.5"/>
    <path id="Path_129747" data-name="Path 129747" d="M19.41,9.2c.312-.053.624-.1.953-.134" transform="translate(-2.037 -0.904)" fill="none" stroke="#797a7a" stroke-linecap="round" stroke-linejoin="round" stroke-width="1.5"/>
    <path id="Path_129748" data-name="Path 129748" d="M8.732,10.219A22.216,22.216,0,0,0,3.77,9.07" transform="translate(-0.329 -0.904)" fill="none" stroke="#797a7a" stroke-linecap="round" stroke-linejoin="round" stroke-width="1.5"/>
    <path id="Path_129749" data-name="Path 129749" d="M8.726,14.267A22.465,22.465,0,0,0,3.72,13.1" transform="translate(-0.323 -1.344)" fill="none" stroke="#797a7a" stroke-linecap="round" stroke-linejoin="round" stroke-width="1.5"/>
    <path id="Path_129750" data-name="Path 129750" d="M14.9,6.417A22.438,22.438,0,0,1,19.915,5.25" transform="translate(-1.545 -0.486)" fill="none" stroke="#797a7a" stroke-linecap="round" stroke-linejoin="round" stroke-width="1.5"/>
    <path id="Path_129751" data-name="Path 129751" d="M21.655,21.842l.089-1a2.672,2.672,0,0,0-2.084-2.85l-3.251-.722V12.16a1.675,1.675,0,1,0-3.34,0v8.2l-1.336-.989a1.363,1.363,0,0,0-1.906,1.915l.419.561" transform="translate(-0.959 -1.045)" fill="none" stroke="#797a7a" stroke-linecap="round" stroke-linejoin="round" stroke-width="1.5"/>
  </g>
</svg>
